<?xml version="1.0" standalone="no"?>
<!DOCTYPE svg PUBLIC "-//W3C//DTD SVG 1.1//EN" "http://www.w3.org/Graphics/SVG/1.1/DTD/svg11.dtd" >
<!--
2013-9-30: Created.
-->
<svg>
<metadata>
Created by iconfont
</metadata>
<defs>

<font id="iconfont" horiz-adv-x="1024" >
  <font-face
    font-family="iconfont"
    font-weight="500"
    font-stretch="normal"
    units-per-em="1024"
    ascent="896"
    descent="-128"
  />
    <missing-glyph />
    
    <glyph glyph-name="x" unicode="x" horiz-adv-x="1001"
d="M281 543q-27 -1 -53 -1h-83q-18 0 -36.5 -6t-32.5 -18.5t-23 -32t-9 -45.5v-76h912v41q0 16 -0.5 30t-0.5 18q0 13 -5 29t-17 29.5t-31.5 22.5t-49.5 9h-133v-97h-438v97zM955 310v-52q0 -23 0.5 -52t0.5 -58t-10.5 -47.5t-26 -30t-33 -16t-31.5 -4.5q-14 -1 -29.5 -0.5
t-29.5 0.5h-32l-45 128h-439l-44 -128h-29h-34q-20 0 -45 1q-25 0 -41 9.5t-25.5 23t-13.5 29.5t-4 30v167h911zM163 247q-12 0 -21 -8.5t-9 -21.5t9 -21.5t21 -8.5q13 0 22 8.5t9 21.5t-9 21.5t-22 8.5zM316 123q-8 -26 -14 -48q-5 -19 -10.5 -37t-7.5 -25t-3 -15t1 -14.5
t9.5 -10.5t21.5 -4h37h67h81h80h64h36q23 0 34 12t2 38q-5 13 -9.5 30.5t-9.5 34.5q-5 19 -11 39h-368zM336 498v228q0 11 2.5 23t10 21.5t20.5 15.5t34 6h188q31 0 51.5 -14.5t20.5 -52.5v-227h-327z" />
    

    
    <glyph glyph-name="luyouqi" unicode="&#58892;" d="M0-126.666c0-47.146 38.186-85.334 85.334-85.334l853.334 0c47.146 0 85.334 38.186 85.334 85.334l-0.002 234.666c0 47.146-38.186 85.334-85.334 85.334l-256 0 0 224c0 29.44-23.894 53.334-53.334 53.334s-53.332-23.894-53.332-53.334l0-224-490.666 0c-47.146 0-85.334-38.186-85.334-85.334l0-234.666zM106.666-9.334c0 29.44 23.894 53.334 53.334 53.334s53.334-23.894 53.334-53.334-23.894-53.332-53.334-53.332-53.334 23.892-53.334 53.332zM298.666-9.334c0 29.44 23.894 53.334 53.334 53.334s53.334-23.894 53.334-53.334-23.894-53.332-53.334-53.332-53.334 23.892-53.334 53.332zM629.334 641.334c-123.734 0-224-100.268-224-224 0-29.44 23.894-53.334 53.334-53.334s53.334 23.894 53.334 53.334c0 64.854 52.48 117.334 117.334 117.334s117.334-52.48 117.334-117.334c0-29.44 23.894-53.334 53.334-53.334s53.334 23.894 53.334 53.334c-0.004 123.732-100.272 224-224.004 224zM629.334 812c-218.028 0-394.668-176.64-394.668-394.666 0-29.44 23.894-53.334 53.334-53.334s53.334 23.894 53.334 53.334c0 159.146 128.852 288 288 288s288-128.854 288-288c0-29.44 23.894-53.334 53.334-53.334s53.334 23.894 53.334 53.334c-0.002 218.026-176.62 394.666-394.668 394.666z"  horiz-adv-x="1025" />

    
    <glyph glyph-name="zhongqi" unicode="&#58909;" d="M243.797333 568.202667c-63.829333-63.829333-103.338667-152.021333-103.338667-249.557333 0-194.858667 158.037333-352.896 352.896-352.896s352.896 158.037333 352.896 352.896c0 92.245333-35.754667 175.786667-93.610667 238.592l-71.850667-71.893333c39.637333-44.458667 64.554667-102.485333 64.554667-166.698667 0-138.922667-113.024-251.989333-251.989333-251.989333-138.965333 0-252.117333 113.024-252.117333 251.989333 0 69.546667 28.330667 132.48 73.898667 178.218667l127.744-127.744L442.88 565.6 442.88 667.530667 442.88 671.541333 140.458667 671.541333 243.797333 568.202667 243.797333 568.202667z"  horiz-adv-x="1024" />

    
    <glyph glyph-name="icon" unicode="&#58897;" d="M512.004093 126.536296c-177.089277 0-327.506079-113.364931-383.099235-271.40741-4.048199-11.509125-14.874779-19.24225-27.075659-19.24225l0 0c-19.805068 0-33.603329 19.579941-27.039843 38.266535 63.429635 180.577728 234.974639 310.195831 437.214736 310.195831 202.238051 0 373.779985-129.618103 437.20655-310.195831 6.563486-18.685571-7.234775-38.265512-27.039843-38.265512l0 0c-12.20088 0-23.027459 7.733125-27.075659 19.24225C839.504032 13.171366 689.085184 126.536296 512.004093 126.536296zM497.504868 213.677982c-151.953807 0-275.138384 123.216299-275.138384 275.216155S345.550037 764.113363 497.504868 764.113363s275.132244-123.218346 275.132244-275.219225S649.458675 213.677982 497.504868 213.677982zM493.926366 706.312936C375.457184 704.402423 280.011368 607.783899 280.011368 488.874695c0-120.102379 97.373725-217.469963 217.493499-217.469963 118.924553 0 215.560474 95.449909 217.461777 213.909881C716.932416 607.726593 616.338347 708.286893 493.926366 706.312936z"  horiz-adv-x="1024" />

    
    <glyph glyph-name="yonghuguanli" unicode="&#58929;" d="M746.001655 61.051586l-201.445517 111.474759c74.822621 58.862345 95.161379 174.503724 95.161379 239.368828L639.717517 546.85131c0 89.370483-118.854621 188.980966-238.274207 188.980966-119.384276 0-241.381517-99.575172-241.381517-188.980966l0-134.956138c0-59.003586 24.964414-178.281931 100.634483-238.874483l-206.706759-112.004414c0 0-53.989517-24.046345-53.989517-53.989517l0-81.037241C0-103.777103 24.222897-128 53.989517-128l692.012138 0c29.801931 0 54.024828 24.222897 54.024828 53.989517l0 81.037241C800.026483 38.806069 746.001655 61.051586 746.001655 61.051586zM736.044138-64.052966 64.017655-64.052966 64.017655-6.885517c4.590345 3.354483 11.016828 7.20331 16.066207 9.533793 1.483034 0.706207 3.001379 1.412414 4.413793 2.224552l206.706759 112.004414c18.855724 10.20469 31.355586 29.166345 33.227034 50.493793 1.906759 21.327448-6.991448 42.195862-23.693241 55.578483-53.671724 43.008-76.658759 138.169379-76.658759 189.016276L224.079448 546.85131c0 45.938759 86.651586 124.998621 177.399172 124.998621 92.442483 0 174.256552-77.965241 174.256552-124.998621l0-134.956138c0-50.105379-15.501241-145.725793-70.761931-189.086897-16.913655-13.312-25.988414-34.215724-24.222897-55.613793 1.836138-21.398069 14.265379-40.465655 33.121103-50.776276l201.480828-111.474759c1.765517-0.953379 4.025379-2.048 5.896828-2.824828 4.731586-2.01269 10.557793-5.331862 14.795034-8.262621L736.044138-64.052966zM969.975172 220.230621l-204.446897 111.474759c74.857931 58.827034 98.198069 174.503724 98.198069 239.333517L863.726345 706.065655C863.726345 795.436138 741.870345 896 622.415448 896c-77.576828 0-156.919172-42.125241-203.105103-96.150069 26.341517-1.624276 55.366621-1.659586 80.472276-9.604414 33.75669 26.200276 76.376276 41.842759 122.632828 41.842759 92.477793 0 177.293241-78.989241 177.293241-125.98731l0-134.991448c0-50.070069-18.537931-145.690483-73.798621-189.086897-16.913655-13.312-25.988414-34.180414-24.222897-55.578483s14.230069-40.500966 33.121103-50.776276l204.482207-111.474759c1.800828-0.953379 4.025379-2.048 5.932138-2.860138 4.696276-2.01269 10.487172-5.331862 14.759724-8.262621l0-56.814345-129.165241 0c19.49131-14.724414 25.388138-35.769379 32.979862-63.982345l106.178207 0c29.837241 0 54.024828 24.222897 54.024828 54.024828l0 80.013241C1024 197.985103 969.975172 220.230621 969.975172 220.230621z"  horiz-adv-x="1025" />

    
    <glyph glyph-name="peizhi" unicode="&#59020;" d="M992.704 491.904l-94.656 0c-8.704 31.296-20.992 60.992-36.608 88.704l66.944 66.88c12.16 12.224 12.16 32.192 0 44.48l-108.16 108.096c-6.144 6.08-14.272 9.216-22.272 9.216s-16.064-3.072-22.208-9.216l-66.88-66.88C681.088 748.8 651.392 761.088 620.032 769.792L620.032 864.576C620.032 881.92 605.888 896 588.672 896L435.648 896C418.304 896 404.224 881.792 404.224 864.576l0-94.72C372.928 761.216 343.232 748.864 315.52 733.312L248.64 800.192C242.496 806.272 234.432 809.344 226.432 809.344S210.304 806.272 204.224 800.192L95.936 691.968c-12.224-12.16-12.224-32.192 0-44.48l66.88-66.88C147.2 552.896 134.912 523.136 126.208 491.904L31.36 491.904C14.208 491.904 0 477.632 0 460.352l0-152.896c0-17.344 14.208-31.36 31.36-31.36l94.72 0c8.704-31.296 20.992-60.992 36.608-88.768l-66.944-66.88c-12.16-12.16-12.16-32.192 0-44.48l108.224-108.096c6.08-6.144 14.208-9.216 22.208-9.216s16.064 3.072 22.208 9.216l66.88 66.88c27.712-15.552 57.408-27.904 88.704-36.544l0-94.72c0-17.28 14.208-31.36 31.36-31.36l152.96 0c17.344 0 31.36 14.208 31.36 31.36l0 94.72c31.296 8.704 61.056 20.992 88.768 36.544l66.88-66.88c6.144-6.144 14.208-9.216 22.208-9.216s16.128 3.072 22.272 9.216l108.352 108.096c12.224 12.16 12.224 32.192 0 44.48l-66.88 66.88c15.552 27.776 27.904 57.408 36.544 88.768l94.72 0c17.344 0 31.36 14.208 31.36 31.36L1023.872 460.352C1024.128 477.632 1009.984 491.904 992.704 491.904zM960.128 340.032l-62.272 0-48.576 0-13.12-46.784c-7.296-26.304-17.664-51.456-30.656-74.496l-23.936-42.304 34.432-34.432 43.904-43.904-62.08-62.144-43.968 43.968-34.368 34.368-42.304-23.872c-23.104-12.992-48.192-23.424-74.496-30.72l-46.848-13.056 0-48.64 0-62.08L468.032-64.064l0 62.208 0 48.576-46.784 13.12c-26.304 7.296-51.392 17.664-74.496 30.656l-42.304 23.936L270.016 80l-43.904-43.904-62.08 62.144 43.904 43.904 34.432 34.432-23.936 42.24C205.376 241.92 195.008 267.072 187.712 293.312L174.592 340.096 126.016 340.096 64 340.096 64 427.968l62.208 0 48.64 0 13.12 46.784C195.2 501.056 205.568 526.144 218.624 549.248l23.936 42.304L208.064 625.984 164.224 669.888l62.08 62.144 43.904-43.904L304.64 653.696 346.88 677.568c23.104 13.056 48.256 23.424 74.496 30.72l46.784 13.12 0 48.64L468.16 832l87.808 0 0-62.208 0-48.576L602.88 708.096c26.304-7.296 51.456-17.728 74.496-30.72l42.304-23.936 34.368 34.432 43.968 43.904 62.144-62.08-43.968-43.904L781.824 591.36l23.872-42.304c12.992-23.104 23.424-48.192 30.656-74.496l13.12-46.784 48.64 0 62.016 0L960.128 340.032zM512 576c-105.984 0-192-86.016-192-192 0-105.984 86.016-192 192-192 106.048 0 192 86.016 192 192C704.064 489.984 618.048 576 512 576zM602.56 293.44C578.368 269.248 546.304 255.936 512 255.936c-34.176 0-66.304 13.312-90.496 37.504C397.312 317.632 384 349.76 384 383.936c0 34.24 13.248 66.304 37.504 90.56C445.696 498.688 477.824 512 512 512c34.24 0 66.368-13.312 90.56-37.504 24.192-24.192 37.504-56.32 37.504-90.56C640.064 349.76 626.752 317.632 602.56 293.44z"  horiz-adv-x="1024" />

    
    <glyph glyph-name="icon1" unicode="&#58902;" d="M814.004265 768.018164l-46.455031 0 0-63.314001 29.114085 0c54.56985 0 98.806353-44.237527 98.806353-98.806353l0-504.022305c0-54.56985-44.237527-98.806353-98.806353-98.806353L226.749304 3.069151c-54.56985 0-98.806353 44.237527-98.806353 98.806353L127.942951 605.897809c0 54.56985 44.237527 98.806353 98.806353 98.806353l29.115108 0 0 63.314001-46.455031 0c-80.316234 0-145.426137-65.109903-145.426137-145.426137L63.983243 81.956849c0-80.317257 65.109903-145.426137 145.426137-145.426137l604.595908 0c80.317257 0 145.426137 65.109903 145.426137 145.426137L959.431425 622.592027C959.430402 702.909284 894.320499 768.018164 814.004265 768.018164zM639.627772 704.057433 639.627772 831.978894 383.78485 831.978894l0-127.921461-63.960731 0 0-63.960731 63.960731 0 255.842922 0 63.960731 0 0 63.960731L639.627772 704.057433zM447.74558 704.057433l0 63.960731 127.921461 0 0-63.960731L447.74558 704.057433zM255.863389 512.176264l255.842922 0 0-63.960731-255.842922 0 0 63.960731ZM255.863389 384.254803l511.684822 0 0-63.960731-511.684822 0 0 63.960731ZM255.863389 256.333342l511.684822 0 0-63.960731-511.684822 0 0 63.960731Z"  horiz-adv-x="1024" />

    
    <glyph glyph-name="route" unicode="&#58882;" d="M71.576 268.751h111.746l0 122.413c0 10.904 5.223 21.067 13.266 27.011l-0 129.515c0 11.124 9.004 19.647 19.888 19.647 11.124 0 20.369-8.523 20.369-19.647v-129.515c7.803-5.944 13.004-16.107 13.004-27.011l-0-122.413h443.531v122.413c0 10.904 5.442 21.067 13.245 27.011v129.515c0 11.124 9.004 19.647 20.13 19.647 10.882 0 20.126-8.523 20.126-19.647v-129.515c8.043-5.944 13.026-16.107 13.026-27.011v-122.413h111.987c18.489 0 33.637-15.386 33.637-33.373v-242.484c0-18.227-15.148-33.635-33.637-33.635l-800.318-0c-18.489 0-33.395 15.408-33.395 33.635v0.458l-0 242.025c0 17.987 14.904 33.373 33.395 33.373v0zM692.662 770.505v0c69.148 0 131.895-27.931 177.135-73.39 45.219-45.459 73.39-107.986 73.39-176.874 0-11.146 8.764-19.67 20.128-19.67 10.884 0 19.647 8.523 19.647 19.67 0 79.793-31.972 152.943-84.777 205.265-52.562 52.584-125.253 84.798-205.525 84.798-10.886 0-19.65-8.523-19.65-19.67-0.001-10.882 8.764-20.128 19.65-20.128v0zM692.662 652.116v0c36.717 0 69.629-14.666 93.54-38.358l1.418-1.443c23.211-23.669 37.176-56.343 37.176-92.076 0-11.146 8.983-19.67 20.128-19.67 10.884 0 19.647 8.523 19.647 19.67 0 46.618-18.468 89.497-49.021 120.051l-0.937 1.88c-31.495 30.772-74.353 49.743-121.953 49.743-10.886 0-19.65-8.786-19.65-19.67-0-11.124 8.765-20.127 19.651-20.127v0zM261.695 114.343v0c0 43.339-66.55 43.339-66.55 0 0-18.687 14.469-33.592 33.154-33.592 18.49 0.001 33.396 14.907 33.396 33.592v0zM504.9 114.343v0c0 43.339-66.55 43.339-66.55 0 0-18.687 14.927-33.592 33.154-33.592 18.688 0.001 33.396 14.907 33.396 33.592v0zM626.591 114.343v0c0 43.339-66.768 43.339-66.768 0 0-18.687 14.927-33.592 33.616-33.592 18.487 0.001 33.152 14.907 33.152 33.592v0zM748.324 114.343v0c0 43.339-66.55 43.339-66.55 0 0-18.687 14.927-33.592 33.154-33.592 18.469 0.001 33.396 14.907 33.396 33.592v0zM838.762 201.984v0c-244.823 0-489.228 0-733.594 0v-175.935h733.594v175.935z"  horiz-adv-x="1024" />

    
    <glyph glyph-name="xiafapeizhi2" unicode="&#58920;" d="M500.61227 392.956641L500.61227 675.154817 355.130826 675.154817 355.130826 392.956641 209.649381 392.956641 427.871548 174.798451 646.093715 392.956641ZM103.001374-11.115831999999955L103.001374 776.876671 707.638636 776.876671 707.638636 645.917781 792.854679 647.5171809999999 792.854679 475.805573 891.953517 475.805573 891.953517 711.557166 710.069724 893.376984 0.191928 893.376984 0.191928-127.61614399999996 400.297888-127.61614399999996 397.610896-11.115831999999955ZM784.409846 112.29389000000003m-39.985006 0a0.625 0.625 0 1 1 79.970011 0 0.625 0.625 0 1 1-79.970011 0ZM985.294515 159.18830400000002l-25.142572 0c-4.030489 14.778458-9.660377 28.789204-17.081594 41.84031l22.583531 22.647507c15.098338 14.970386 15.098338 39.345246 0 54.443584l-13.62689 13.562914c-14.970386 14.970386-39.345246 14.970386-54.443584 0l-22.135699-22.135699c-13.562914 7.869049-28.085468 14.074722-43.631638 18.233163L831.816069 313.69036600000004c0 21.240035-17.209546 38.513557-38.449581 38.513557L774.301637 352.20392400000003c-21.304011 0-38.513557-17.273522-38.513557-38.513557l0-25.846308c-15.418218-4.158441-30.1327-10.364113-43.695614-18.233163l-22.071723 22.135699c-15.098338 14.970386-39.345246 14.970386-54.50756 0L601.950269 278.183681c-14.970386-15.034362-14.970386-39.409222 0-54.443584l22.583531-22.647507c-7.293265-13.051106-12.923154-27.061852-16.953642-41.84031L582.501562 159.25228000000004c-21.304011 0-38.513557-17.209546-38.513557-38.513557l0-19.192803c0-21.367987 17.209546-38.641509 38.513557-38.641509l25.3345 0c4.158441-14.842434 10.044233-29.045108 17.593402-42.224166l-23.479195-23.415219c-14.970386-15.034362-14.970386-39.409222 0-54.443584l13.62689-13.562914c15.098338-15.098338 39.345246-15.098338 54.50756 0l23.607147 23.543171c13.115082-7.549169 27.25378-13.243034 42.096214-17.337498l0-24.630763c0-21.304011 17.209546-38.513557 38.513557-38.513557L793.49444-127.68011999999999c21.240035 0 38.449581 17.209546 38.449581 38.513557l0 24.630763c14.330626 6.141697 29.045108 9.788329 42.16019 17.337498l23.543171-23.543171c15.034362-15.098338 39.409222-15.098338 54.443584 0l13.62689 13.562914c15.098338 14.970386 15.098338 39.345246 0 54.443584l-23.415219 23.415219c7.549169 13.179058 13.434962 27.381732 17.593402 42.224166l25.398476 0c21.112083 0 38.513557 17.273522 38.513557 38.641509l0 19.192803C1023.808072 142.042734 1006.470574 159.18830400000002 985.294515 159.18830400000002zM783.898038 4.622266999999965c-58.410096 0-105.816319 47.406223-105.816319 105.752343 0 58.474072 47.406223 105.816319 105.816319 105.816319s105.816319-47.342247 105.816319-105.816319C889.714357 52.09246499999995 842.308134 4.622266999999965 783.898038 4.622266999999965z"  horiz-adv-x="1024" />

    
    <glyph glyph-name="fenzu" unicode="&#58950;" d="M980.012417 127.710475c-17.316846 17.293563-41.673406 28.189226-68.599249 28.189226l-90.389564 0c-26.921794 0-50.6497-10.894651-68.599249-28.189226-17.316846-17.939427-28.198337-41.658221-28.198337-68.585077l0-90.352107c0-26.925843 10.881491-51.275317 28.198337-68.590139 17.94955-17.29255 41.678468-28.18214 68.599249-28.18214l90.389564 0c26.926856 0 51.282403 10.889589 68.599249 28.18214 17.316846 17.314821 28.203398 41.665308 28.203398 68.590139l0 90.352107C1008.215815 86.052253 997.329263 109.771048 980.012417 127.710475zM950.527414-31.22671c0-10.894651-4.502825-20.505673-11.541527-27.557535-7.059961-7.055911-16.662884-11.546589-27.573732-11.546589l-90.389564 0c-10.909836 0-20.512759 4.489665-27.573732 11.546589-7.039714 7.051862-10.889589 16.662884-10.889589 27.557535l0 90.352107c0 10.889589 3.849875 20.501623 10.889589 27.557535 7.059961 7.05085 16.662884 10.909836 27.573732 10.909836l90.389564 0c10.909836 0 20.512759-3.859998 27.573732-10.909836 7.038702-7.05085 11.541527-16.667945 11.541527-27.557535L950.527414-31.22671zM549.850864 155.899701l-90.412847 0c-26.904584 0-51.282403-10.894651-68.576978-28.189226-17.94955-17.939427-28.205423-41.658221-28.205423-68.585077l0-90.352107c0-26.925843 10.256886-51.275317 28.205423-68.590139 17.294575-17.29255 41.678468-28.18214 68.576978-28.18214l90.412847 0c26.265807 0 50.6497 10.889589 68.593176 28.18214 17.299637 17.314821 28.209472 41.665308 28.209472 68.590139l0 90.352107c0 26.926856-10.909836 50.64565-28.209472 68.585077C600.500564 145.004037 576.116671 155.899701 549.850864 155.899701zM588.306086-31.22671c0-10.894651-3.842789-20.505673-10.904774-27.557535-7.037689-7.055911-17.294575-11.546589-27.550448-11.546589l-90.412847 0c-10.887565 0-20.512759 4.489665-27.552473 11.546589-7.038702 7.051862-11.541527 16.662884-11.541527 27.557535l0 90.352107c0 10.889589 4.501813 20.501623 11.541527 27.557535 7.038702 7.05085 16.664908 10.909836 27.552473 10.909836l90.412847 0c10.256886 0 20.512759-3.859998 27.550448-10.909836 7.061985-7.05085 10.904774-16.667945 10.904774-27.557535L588.306086-31.22671zM618.444039 851.266333c-17.943476 17.303686-42.327369 28.199349-68.593176 28.199349l-90.412847 0c-26.89851 0-51.282403-10.894651-68.576978-28.199349-17.94955-17.9455-28.205423-42.300036-28.205423-68.574954l0-90.363243c0-26.919769 10.256886-51.275317 28.205423-68.579003 17.294575-17.9455 41.678468-28.199349 68.576978-28.199349l90.412847 0c26.265807 0 50.6497 10.253849 68.593176 28.199349 17.299637 17.303686 28.209472 41.659234 28.209472 68.579003L646.653512 782.691379C646.653512 808.965284 635.743676 833.325894 618.444039 851.266333zM588.306086 692.327124c0-10.893639-3.842789-20.505673-10.904774-27.556522-7.037689-7.05085-17.294575-11.540515-27.550448-11.540515l-90.412847 0c-10.887565 0-20.512759 4.489665-27.552473 11.540515-7.038702 7.051862-11.541527 16.662884-11.541527 27.556522L420.344017 782.691379c0 10.252836 4.501813 20.506685 11.541527 27.556522 7.038702 6.409035 16.664908 10.889589 27.552473 10.889589l90.412847 0c10.256886 0 20.512759-3.83874 27.550448-10.889589 7.061985-7.049837 10.904774-17.303686 10.904774-27.556522L588.306086 692.327124zM113.907918 217.437977c0-8.333466 3.217172-15.385328 8.344602-20.505673 5.123381-5.142615 12.166132-8.334479 20.507697-8.334479 7.692664 0 15.384316 3.191863 20.512759 8.334479 5.12743 5.120344 8.323343 12.172206 8.323343 20.499599L171.596319 369.325324l303.87289 0 0-151.892409c0-8.327393 3.217172-15.379254 8.344602-20.499599 5.129455-5.142615 12.822119-8.986417 20.512759-8.986417 8.324356 0 15.385328 3.842789 20.512759 8.986417 5.12743 5.120344 8.340553 12.172206 8.340553 20.499599L533.179882 369.325324l303.878964 0 0-151.887347c0-8.333466 3.1949-15.385328 8.972244-20.505673 5.12743-5.142615 12.166132-8.986417 20.511747-8.986417 7.692664 0 14.731366 3.842789 20.512759 8.986417 5.129455 5.120344 8.324356 12.172206 8.324356 20.505673L895.37995 398.159402c0 7.693677-3.1949 15.385328-8.324356 20.506685-5.781393 5.13148-12.820095 8.333466-20.512759 8.333466l-332.731263 0L533.811573 534.02568c0 7.693677-3.843801 14.744526-8.971232 20.505673-5.12743 5.133504-12.189416 8.335491-20.512759 8.335491-7.691652 0-15.384316-3.201987-20.512759-8.335491-5.12743-5.761146-8.344602-12.811996-8.344602-20.505673l0-107.026127L142.766291 426.999553c-8.346627 0-15.385328-3.201987-20.512759-8.333466-5.12743-5.121357-8.998565-12.814021-8.998565-20.506685l0.653963 0L113.90893 217.437977zM187.634598 155.899701l-90.413859 0c-26.90256 0-50.627428-10.894651-68.576978-28.189226-17.316846-17.939427-28.204411-41.658221-28.204411-68.585077l0-90.352107c0-26.925843 10.887565-51.275317 28.204411-68.590139 17.94955-17.29255 41.674419-28.18214 68.576978-28.18214l90.413859 0c26.919769 0 51.275317 10.889589 68.592163 28.18214 17.94955 17.314821 28.205423 41.665308 28.205423 68.590139l0 90.352107c0 26.926856-10.256886 50.64565-28.205423 68.585077C238.909915 145.004037 214.554367 155.899701 187.634598 155.899701zM226.721512-31.22671c0-10.894651-4.473468-20.505673-11.513182-27.557535-7.066034-7.055911-16.691229-11.546589-27.572719-11.546589l-90.413859 0c-10.254861 0-20.511747 4.489665-27.550448 11.546589-7.044776 7.051862-10.909836 16.662884-10.909836 27.557535l0 90.352107c0 10.889589 3.86506 20.501623 10.909836 27.557535 7.038702 7.05085 16.662884 10.909836 27.550448 10.909836l90.413859 0c10.881491 0 20.507697-3.859998 27.572719-10.909836 7.038702-7.05085 11.513182-16.667945 11.513182-27.557535L226.721512-31.22671z"  horiz-adv-x="1024" />

    
    <glyph glyph-name="diannao-copy" unicode="&#58898;" d="M1005.046 198.585c0-58.585-46.286-106.39-104.869-106.39h-777.693c-58.565 0-106.995 47.806-106.995 106.39v494.895c0 58.585 48.43 106.111 106.995 106.111h777.693c58.583 0 104.869-47.527 104.869-106.111v-494.895zM934.837 693.481c0 19.539-15.12 35.902-34.659 35.902h-777.693c-19.521 0-35.462-16.363-35.462-35.902v-494.894c0-19.539 15.94-36.18 35.462-36.18h777.693c19.539 0 34.659 16.641 34.659 36.18v494.894zM49.932 339.916h921.997v-70.21h-921.997v70.21zM740.691-83.991h-459.549c-19.52 0-35.349 15.567-35.349 35.105 0 19.536 15.827 35.105 35.349 35.105h459.548c19.537 0 35.348-15.569 35.348-35.105 0-19.538-15.809-35.105-35.347-35.105zM334.745 92.196h70.21v-141.744h-70.21v141.744zM581.14 92.196h71.536v-141.744h-71.536v141.744z"  horiz-adv-x="1024" />

    
    <glyph glyph-name="shebei" unicode="&#58903;" d="M616.319 65.467H519.36v111.54H543.7c-8.464 19.443-14.952 37.863-19.572 56.283H159.99c-17.063 0-32.555 2.16-32.555 18.408v19.454h389.798c-0.366 0-0.814 12.496-0.814 17.94 0 12.103 1.203 18.899 2.976 37.318h-391.96V674.346c0 7.082 6.145 13.543 10.965 18.609 4.801 5.056 14.507 7.984 21.59 7.984h602.994c7.084 0 18.343-8.071 18.343-26.593V511.91c18.42-3.871 36.84-9.903 56.282-17.587V674.346c0 35.637-26.898 82.875-63.368 82.875H159.99c-20.756 0-44.802-10.57-59.99-25.492-15.187-14.942-28.846-36.126-28.846-57.383v-423.673c0-42 24.446-73.666 88.836-73.666h209.969v-111.54h-60.39c-7.083 0-13.162-3.686-18.218-8.761-5.075-5.056-7.594-11.7-7.594-18.801 0-7.084 2.519-14.854 7.594-19.672 5.056-4.82 11.135-9.049 18.218-9.049h306.75c7.083 0 13.144 3.938 18.219 8.757 5.056 4.819 7.594 11.525 7.594 18.608 0 7.1-2.538 14.714-7.594 19.771-5.076 5.075-11.136 9.147-18.22 9.147z m-133.797 0H426.24v111.54h56.282v-111.54zM744.23 213.735c-38.654 0-70.097 31.452-70.097 70.098s31.443 70.097 70.097 70.097 70.098-31.452 70.098-70.097-31.445-70.098-70.098-70.098z m0 102.81c-18.036 0-32.712-14.676-32.712-32.711s14.676-32.712 32.712-32.712 32.712 14.676 32.712 32.712-14.677 32.712-32.712 32.712zM743.737 83.887c-14.631 0-28.413 1.635-38.864 11.913-10.506 10.314-16.393 22.093-16.594 36.825-4.646 1.68-9.21 3.05-13.691 5.168-10.26-9.876-23.685-16.044-37.979-16.044h-0.512c-14.63 0-28.422 5.185-38.873 15.462-10.57 10.37-16.466 24.033-16.602 38.855-0.128 14.732 5.449 28.528 15.717 39.08a162.364 162.364 0 0 0-5.659 13.688c-14.23 0.274-27.6 5.85-37.805 15.872-10.57 10.386-16.466 24.264-16.602 39.087s5.512 28.799 15.91 39.368c10.322 10.515 24.104 16.39 38.817 16.59a162.393 162.393 0 0 0 5.933 14.145c-9.839 10.277-15.306 23.712-15.388 38.042-0.082 14.822 5.605 28.787 16.028 39.32 21.45 21.705 56.507 21.979 78.285 0.676a170.524 170.524 0 0 0 12.887 5.293c0.494 30.176 25.192 54.563 55.485 54.563 30.294 0 54.993-24.388 55.485-54.563 4.692-1.697 9.3-3.614 13.819-5.731 21.503 20.755 55.868 20.755 77.353-0.238 10.606-10.35 16.53-24.223 16.695-39.046 0.164-14.75-5.385-28.66-15.626-39.23a162.84 162.84 0 0 0 5.63-13.58c29.874-0.457 54.218-24.736 54.6-54.8 0.183-14.823-5.421-28.843-15.781-39.45-10.286-10.532-24.042-16.465-38.755-16.72a163.057 163.057 0 0 0-5.905-14.184c9.876-10.241 15.38-23.676 15.516-37.97 0.137-14.823-5.512-28.806-15.89-39.393-21.367-21.76-56.444-22.16-78.286-0.913-4.527-2.117-9.136-0.011-13.837-1.69-0.584-29.883-24.936-50.394-55.001-50.394l-0.51-0.001z m-74.58 95.274c3.396 0 6.763-0.932 9.73-2.72a124.326 124.326 0 0 1 34.848-14.567 18.7 18.7 0 0 0 11.974-9.31 18.683 18.683 0 0 0 1.123-15.133c-0.803-2.263-1.187-4.271-1.169-6.188 0.037-4.874 1.963-9.4 5.413-12.796 3.45-3.377 7.274-5.294 12.842-5.184 9.985 0.09 18.036 8.288 17.954 18.273-0.018 1.698-0.393 3.578-1.16 5.75a18.723 18.723 0 0 0 1.196 15.115 18.757 18.757 0 0 0 12.011 9.255 125.252 125.252 0 0 1 35.05 14.421 18.797 18.797 0 0 0 15.06 1.88 18.675 18.675 0 0 0 11.491-9.912c1.023-2.155 2.173-3.852 3.542-5.203 7.147-6.991 18.63-6.9 25.63 0.237a17.986 17.986 0 0 1 5.184 12.852c-0.046 4.819-1.972 9.347-5.422 12.742-1.223 1.205-2.838 2.282-4.956 3.305a18.665 18.665 0 0 0-9.811 11.536 18.68 18.68 0 0 0 1.963 15.024 124.647 124.647 0 0 1 14.659 35.25 18.736 18.736 0 0 0 9.264 11.993 18.696 18.696 0 0 0 15.115 1.187 19.208 19.208 0 0 1 6.225-1.15c4.846 0.055 9.364 1.989 12.742 5.458a17.96 17.96 0 0 1 5.148 12.869c-0.128 9.967-8.972 17.36-18.318 17.87-1.789-0.255-3.551-0.383-5.732-1.168-4.992-1.77-10.496-1.387-15.15 1.132a18.712 18.712 0 0 0-9.32 11.993 124.78 124.78 0 0 1-14.422 34.812 18.667 18.667 0 0 0-1.916 15.023 18.706 18.706 0 0 0 9.839 11.518c2.19 1.041 3.915 2.227 5.248 3.596a17.972 17.972 0 0 1 5.166 12.87 17.935 17.935 0 0 1-5.44 12.742c-7.147 6.972-18.638 6.846-25.611-0.292-1.186-1.223-2.254-2.83-3.25-4.928a18.727 18.727 0 0 0-11.527-9.858 18.637 18.637 0 0 0-15.05 1.935 124.142 124.142 0 0 1-34.976 14.494 18.707 18.707 0 0 0-12.012 9.292 18.69 18.69 0 0 0-1.159 15.133c0.785 2.209 1.169 4.161 1.169 5.987 0 9.985-8.123 18.108-18.109 18.108s-18.108-8.123-18.108-18.108c0-1.826 0.384-3.779 1.168-5.987a18.69 18.69 0 0 0-1.159-15.133 18.712 18.712 0 0 0-12.002-9.292 124.176 124.176 0 0 1-34.291-14.074 18.644 18.644 0 0 0-15.06-1.826 18.637 18.637 0 0 0-11.455 9.93c-1.013 2.173-2.173 3.87-3.542 5.221-7.11 6.992-18.61 6.956-25.63-0.164a17.944 17.944 0 0 1-5.22-12.815 17.94 17.94 0 0 1 5.376-12.76c1.232-1.223 2.83-2.3 4.902-3.304 4.764-2.282 8.332-6.5 9.82-11.574s0.757-10.533-2.008-15.041a124.84 124.84 0 0 1-14.768-35.177 18.736 18.736 0 0 0-9.32-11.975 18.78 18.78 0 0 0-15.124-1.114c-2.226 0.785-4.107 1.333-6.142 1.15-4.902-0.036-9.43-1.953-12.815-5.402-3.396-3.451-5.24-8.014-5.194-12.852s1.963-9.364 5.413-12.76a18.033 18.033 0 0 1 12.687-5.184c1.542-0.165 3.687 0.366 6.005 1.169 5.002 1.698 10.46 1.296 15.088-1.241a18.686 18.686 0 0 0 9.219-11.994 124.774 124.774 0 0 1 14.385-34.975 18.712 18.712 0 0 0 1.87-15.06 18.718 18.718 0 0 0-9.903-11.483c-2.164-1.022-3.88-2.19-5.24-3.577a17.98 17.98 0 0 1-5.175-12.833 17.955 17.955 0 0 1 5.422-12.743c3.459-3.413 8.589-5.823 12.852-5.202 4.837 0.037 9.373 1.972 12.76 5.421 1.186 1.205 2.254 2.811 3.257 4.911a18.752 18.752 0 0 0 11.546 9.84c1.742 0.51 3.53 0.765 5.31 0.765z"  horiz-adv-x="1024" />

    
    <glyph glyph-name="tanzhen" unicode="&#58887;" d="M95.850234 517.391576c0 115.020281 44.730109 217.26053 121.410296 293.940717 19.170047 19.170047 19.170047 51.120125 0 70.290172-19.170047 19.170047-51.120125 19.170047-70.290171 0C51.120125 785.772231 0 657.971919 0 517.391576s51.120125-268.380655 153.360374-370.620905c19.170047-19.170047 51.120125-19.170047 70.290172 0 19.170047 19.170047 19.170047 51.120125 0 70.290171-83.070203 76.680187-127.800312 185.310452-127.800312 300.330734z m268.380655-223.650546c19.170047 19.170047 19.170047 44.730109 0 70.290171-38.340094 38.340094-57.51014 89.460218-57.51014 146.970359 0 57.51014 19.170047 108.630265 63.900156 146.970359 12.780031 12.780031 12.780031 44.730109-6.390016 63.900156-19.170047 19.170047-44.730109 19.170047-63.900156 0-63.900156-51.120125-89.460218-127.800312-89.460218-210.870515 0-83.070203 31.950078-153.360374 89.460218-217.26053 12.780031-19.170047 44.730109-25.560062 63.900156 0zM869.042122 881.622465c-19.170047 19.170047-51.120125 19.170047-70.290172 0-19.170047-19.170047-19.170047-51.120125 0-70.290172 76.680187-76.680187 121.410296-185.310452 121.410296-293.940717 0-115.020281-44.730109-217.26053-121.410296-300.330734-19.170047-19.170047-19.170047-51.120125 0-70.290171 19.170047-19.170047 51.120125-19.170047 70.290172 0C964.892356 249.01092 1022.402496 383.201248 1022.402496 517.391576c0 140.580343-51.120125 268.380655-153.360374 364.230889z m-140.580344-159.75039c-19.170047 19.170047-51.120125 19.170047-70.290171 0-19.170047-19.170047-19.170047-51.120125 0-70.290172 38.340094-38.340094 57.51014-89.460218 63.900156-146.970359 0-57.51014-19.170047-108.630265-57.510141-146.970358-19.170047-19.170047-19.170047-51.120125 0-70.290172 19.170047-19.170047 51.120125-12.780031 70.290172 0 57.51014 63.900156 89.460218 134.190328 89.460218 217.26053-6.390016 89.460218-38.340094 159.75039-95.850234 217.260531zM543.151326 319.301092h-63.900156c-12.780031 0-31.950078-12.780031-31.950078-31.950078l-127.800312-383.400936c0-19.170047 19.170047-31.950078 31.950078-31.950078h6.390016l127.800312 115.020281c12.780031 19.170047 38.340094 19.170047 51.120124 0l127.800312-115.020281h6.390016c19.170047 0 31.950078 12.780031 31.950078 31.950078l-127.800312 383.400936c0 19.170047-12.780031 31.950078-31.950078 31.950078zM421.74103 498.221529a89.460218 89.460218 0 1 1 178.920436 0 89.460218 89.460218 0 1 1-178.920436 0Z"  horiz-adv-x="1024" />

    
    <glyph glyph-name="yonghuguanli1" unicode="&#58952;" d="M767.36 429.44c-8.96 0-17.92 3.2-24.32 9.6s-10.24 14.72-10.24 23.68c0 8.96 3.84 17.28 10.24 23.68 32 31.36 49.92 73.6 49.92 118.4s-17.92 87.04-49.92 118.4-74.88 49.28-120.32 49.28S534.4 755.2 502.4 723.2c-32-31.36-49.92-73.6-49.92-118.4s17.92-87.04 49.92-118.4c6.4-6.4 10.24-14.72 10.24-23.68 0-8.96-3.84-17.28-10.24-23.68s-14.72-9.6-24.32-9.6c-8.96 0-17.92 3.2-24.32 9.6-44.8 44.16-69.76 103.04-69.76 165.76 0 62.72 24.96 121.6 69.76 165.76 44.8 44.16 104.96 68.48 168.32 68.48 63.36 0 123.52-24.32 168.32-68.48 44.8-44.16 69.76-103.04 69.76-165.76 0-62.72-24.96-121.6-69.76-165.76-5.12-5.76-13.44-9.6-23.04-9.6zM98.56-19.2c-18.56 0-33.92 15.36-33.92 33.92v3.2V108.8c0 161.28 133.12 292.48 296.96 292.48 24.32 0 48-2.56 71.68-8.32 1.28-0.64 2.56-1.28 2.56-3.2 0-1.28-0.64-2.56-2.56-3.2-40.32-11.52-77.44-30.08-110.08-55.68-0.64 0-0.64-0.64-1.28-0.64-109.44-19.2-188.16-112.64-188.16-222.08v-60.8h89.6c1.92 0 3.2-1.28 3.2-3.2v-60.8c0-0.64 0-1.92-0.64-2.56-0.64-0.64-1.28-1.28-2.56-1.28H98.56zM224 414.08c-8.96 0-17.92 3.2-24.32 9.6-39.68 39.04-62.08 91.52-62.08 147.2s21.76 108.16 62.08 147.2c39.68 39.04 92.8 60.8 149.12 60.8 12.8 0 26.24-1.28 39.04-3.84 1.28 0 1.92-1.28 2.56-1.92 0.64-1.28 0-2.56-0.64-3.2-1.28-1.28-2.56-1.92-3.2-3.2-16-16-29.44-33.92-40.32-53.12-0.64-1.28-1.28-1.92-2.56-1.92-36.48-1.28-69.76-16-95.36-40.96-26.88-26.88-41.6-62.08-41.6-99.84s14.72-72.96 41.6-99.84c6.4-6.4 10.24-14.72 10.24-23.68 0-8.96-3.84-17.28-10.24-23.68-6.4-5.76-14.72-9.6-24.32-9.6zM616.96 41.6c-18.56 0-33.92 15.36-33.92 33.92V160c0 18.56 15.36 33.92 33.92 33.92s33.92-15.36 33.92-33.92v-84.48c0.64-18.56-14.72-33.92-33.92-33.92zM616.96 224.64c-18.56 0-33.92 15.36-33.92 33.92s15.36 33.92 33.92 33.92 33.92-15.36 33.92-33.92c0.64-18.56-14.72-33.92-33.92-33.92zM320-55.68c-18.56 0-33.92 15.36-33.92 33.92 0 2.56 0 4.48 0.64 6.4-0.64 1.92-0.64 4.48-0.64 6.4v90.24c0 183.04 151.04 332.16 336.64 332.16s336.64-149.12 336.64-332.16v-90.24c0-18.56-15.36-33.92-33.92-33.92s-33.92 15.36-33.92 33.92v90.24c0 145.92-120.32 264.96-268.8 264.96s-268.8-119.04-268.8-264.96v-69.76h435.84c18.56 0 33.92-15.36 33.92-33.92s-15.36-33.92-33.92-33.92H320z"  horiz-adv-x="1024" />

    
    <glyph glyph-name="xitong" unicode="&#58904;" d="M518.154 278.543l47.743-46.563-30.651-30.651c0 0-22.396-23.577 6.779-53.636l240.183-238.709c0 0 22.987-20.629 48.331-2.947l120.24 116.702c0 0 21.218 28.292-7.073 54.224l-238.122 235.764c0 0-25.934 25.343-54.815 3.536l-31.237-31.829-50.1 49.511-51.279-55.404zM485.147 415.875l-257.571 254.034v78.39l-152.067 90.18-75.248-73.086 91.751-146.174 80.749-0.59 254.034-249.908 58.352 47.152zM69.613-11.449c0 0 0 38.901 40.67 38.901 0 0 36.544-1.18 37.721-38.901 0 0-1.179-35.364-39.197-37.721l-33.89-33.597c0 0 49.509-45.973 105.504 0l459.148 492.156c0 0 50.1-33.595 125.545-33.007 0 0 92.144-3.535 164.444 59.335 0 0 141.068 110.61 68.766 283.7l-164.247-158.748-139.1 137.527 164.249 157.174c0 0-104.521 61.298-245.981-27.506 0 0-73.087-51.083-95.091-143.029 0 0-33.005-109.237 40.869-207.472l-516.319-423.585c0 0-32.222-31.437-16.505-77.803l43.417 12.572zM69.613-11.449c0 0 3.142-36.937 39.197-37.721l-33.89-33.597c0 0-44.569 38.269-48.723 58.746l43.418 12.572z"  horiz-adv-x="1024" />

    
    <glyph glyph-name="yonghuguanli2" unicode="&#58925;" d="M716.687334 270.397662a429.578826 429.578826 0 0 1-74.801637 37.245276c82.895989 53.150524 136.945999 146.9437 136.945999 254.17084 0 165.912727-128.942721 300.415071-294.857495 300.415071-165.874865 0-294.812469-134.502343-294.812469-300.415071 0-107.228163 54.114478-201.083761 137.03605-254.232238C183.759699 253.166209 79.13278 126.934227 59.02993-29.243789c-0.734734-2.992147-1.231037-6.068206-1.231038-9.322319-0.13303-1.107217-0.36839-2.177596-0.469697-3.313466h0.731664l0.034792-0.363273c0-21.670555 17.602913-39.243793 39.210024-39.243793 21.638833 0 39.179324 17.573237 39.179324 39.243793l-0.364297 3.592828c0 3.575432-0.597611 6.939039-1.500167 10.17064 26.5067 166.480662 170.383552 288.211121 345.19802 290.188148 1.431605-0.079818 2.734274-0.2415 4.16588-0.2415 1.434675 0 2.737344 0.161682 4.167926 0.2415 58.630329-0.660032 113.734344-14.84101 162.144913-39.593763 19.047822 19.717064 41.466414 36.145222 66.39006 48.282656z m-232.766344 64.294329c-125.436874 0-227.098251 101.663424-227.098252 227.065505 0 125.433804 101.662401 227.129974 227.098252 227.129974 125.395942 0 227.053226-101.69617 227.053225-227.129974 0.001023-125.404128-101.661378-227.065506-227.053225-227.065505zM935.20107 60.419324c0.725524 5.668093 1.2689 11.326976 1.268899 17.3389 0 6.01704-0.543376 11.675924-1.268899 17.35425l38.169321 29.203112c3.441379 2.645247 4.341888 7.437389 2.167362 11.320837l-36.186153 61.246922c-2.160199 3.89675-7.04751 5.308913-11.030218 3.89675l-45.038776-17.695011c-9.411347 7.061836-19.537985 12.910031-30.568202 17.335831l-6.880711 46.916542c-0.542352 4.234441-4.327562 7.426133-8.864902 7.426133h-72.344678c-4.52199 0-8.325619-3.191692-8.877181-7.426133l-6.868432-46.916542c-11.032264-4.425799-21.165042-10.440793-30.566156-17.335831l-45.043892 17.695011c-4.158716 1.589195-8.862855 0-11.030218-3.89675l-36.180013-61.246922c-2.347464-3.8814-1.276063-8.674567 2.168385-11.320837l38.163182-29.203112c-0.725524-5.678326-1.2689-11.496845-1.2689-17.35425 0-5.835915 0.545422-11.670807 1.2689-17.3389l-38.163182-29.206183c-3.444449-2.659573-4.339842-7.42818-2.168385-11.324929l36.180013-61.237713c2.167363-3.895727 7.05672-5.313006 11.030218-3.895727l45.043892 17.704221c9.402137-7.082302 19.527752-12.925381 30.566156-17.347087l6.868432-46.905286c0.551562-4.251837 4.352121-7.436366 8.877181-7.436366h72.344678c4.536316 0 8.317433 3.182482 8.864902 7.436366l6.880711 46.905286c11.039427 4.421706 21.162995 10.444886 30.568202 17.347087l45.038776-17.704221c4.160763-1.595334 8.851599 0 11.030218 3.895727l36.186153 61.237713c2.171456 3.8814 1.274016 8.667404-2.167362 11.324929l-38.169321 29.206183z m-134.411269-44.598754c-34.900881 0-63.305815 27.79709-63.305815 61.946864 0 34.151821 28.404933 61.95505 63.305815 61.95505 34.925441 0 63.321164-27.803229 63.321164-61.95505 0-34.157961-28.395724-61.946864-63.321164-61.946864z"  horiz-adv-x="1024" />

    
    <glyph glyph-name="liebiao" unicode="&#58883;" d="M153.6 742.4a51.2 51.2 0 1 0 0.0256-102.3744A51.2 51.2 0 0 0 153.6 742.4z m0-307.2a51.2 51.2 0 1 0 0.0256-102.3744A51.2 51.2 0 0 0 153.6 435.2z m0-307.2a51.2 51.2 0 1 0 0.0256-102.3744A51.2 51.2 0 0 0 153.6 128zM896 716.8H332.8a25.6 25.6 0 0 1 0-51.2h563.2a25.6 25.6 0 0 1 0 51.2z m0-307.2H332.8a25.6 25.6 0 0 1 0-51.2h563.2a25.6 25.6 0 0 1 0 51.2z m0-307.2H332.8a25.6 25.6 0 0 1 0-51.2h563.2a25.6 25.6 0 0 1 0 51.2z"  horiz-adv-x="1024" />

    
    <glyph glyph-name="wuxian" unicode="&#58625;" d="M511.037 160.873c-38.292 0-70.201-35.522-70.201-78.149s31.91-78.269 70.201-78.269c38.292 0 70.201 35.522 70.201 78.269-0.12 42.627-32.030 78.149-70.201 78.149v0 0zM255.759 253.351l51.056-56.835c57.437 56.835 127.639 85.373 204.102 85.373 76.583 0 153.046-35.522 204.102-85.373l51.056 56.835c-70.201 71.044-159.548 113.791-255.157 113.791-95.609-0.12-184.956-49.851-255.157-113.791v0 0zM128.241 395.56l51.056-56.835c89.227 85.253 204.102 142.088 331.74 142.088 127.639 0 242.393-56.835 331.74-149.313l51.056 63.94c-102.111 106.687-236.011 170.627-382.796 170.627-146.785 0.12-280.805-71.044-382.796-170.506v0 0zM511.037 765.23c-197.72 0-376.414-85.373-503.932-227.462l51.056-56.835c114.634 127.88 274.183 206.149 452.877 206.149 178.574 0 338.122-78.269 459.379-206.149l51.056 56.835c-134.141 142.088-312.715 227.462-510.435 227.462v0 0z"  horiz-adv-x="1024" />

    
    <glyph glyph-name="fuwuqi" unicode="&#59180;" d="M153.6 537.088C153.6 537.5488 870.4 537.6 870.4 537.6V742.912C870.4 742.4512 153.6 742.4 153.6 742.4v-205.312z m-44.4416-280.9856A49.8176 49.8176 0 0 0 102.4 281.1392V486.8608c0 9.216 2.4576 17.8176 6.7584 25.2416A49.8176 49.8176 0 0 0 102.4 537.1392V742.8608C102.4 770.8672 125.184 793.6 153.6 793.6h716.8a51.2 51.2 0 0 0 51.2-50.688v-205.824c0-9.1648-2.4576-17.7664-6.7584-25.1904a49.8176 49.8176 0 0 0 6.7584-25.0368v-205.7216c0-9.216-2.4576-17.8176-6.7584-25.2416a49.8176 49.8176 0 0 0 6.7584-25.0368v-205.7216c0-28.0064-22.784-50.7392-51.2-50.7392H153.6a51.2 51.2 0 0 0-51.2 50.688v205.824c0 9.1648 2.4576 17.7664 6.7584 25.1904zM153.6 25.1392C153.6 25.4976 870.4 25.6 870.4 25.6v205.312C870.4 230.4512 153.6 230.4 153.6 230.4v-205.312z m0 256C153.6 281.4976 870.4 281.6 870.4 281.6V486.912C870.4 486.4512 153.6 486.4 153.6 486.4v-205.312zM230.4 640a25.6 25.6 0 1 1 0 51.2 25.6 25.6 0 0 1 0-51.2z m102.4 0a25.6 25.6 0 1 1 0 51.2 25.6 25.6 0 0 1 0-51.2z m179.2 25.6a25.6 25.6 0 0 0 25.1392 25.6h256.9216a25.6 25.6 0 0 0 0-51.2h-256.9216A25.6 25.6 0 0 0 512 665.6zM230.4 384a25.6 25.6 0 1 1 0 51.2 25.6 25.6 0 0 1 0-51.2z m102.4 0a25.6 25.6 0 1 1 0 51.2 25.6 25.6 0 0 1 0-51.2z m179.2 25.6a25.6 25.6 0 0 0 25.1392 25.6h256.9216a25.6 25.6 0 0 0 0-51.2h-256.9216A25.6 25.6 0 0 0 512 409.6zM230.4 128a25.6 25.6 0 1 1 0 51.2 25.6 25.6 0 0 1 0-51.2z m102.4 0a25.6 25.6 0 1 1 0 51.2 25.6 25.6 0 0 1 0-51.2z m179.2 25.6a25.6 25.6 0 0 0 25.1392 25.6h256.9216a25.6 25.6 0 0 0 0-51.2h-256.9216a25.6 25.6 0 0 0-25.1392 25.6z"  horiz-adv-x="1024" />

    
    <glyph glyph-name="icon_shengji" unicode="&#58891;" d="M511.923-128c-0.004-0-0.009-0-0.014-0-282.692 0-511.86 229.168-511.86 511.86 0 210.876 127.52 391.968 309.654 470.369 62.133 26.793 130.626 41.638 202.586 41.638 282.774 0 512.007-229.233 512.007-512.007 0-210.814-127.408-391.869-309.424-470.367-62.026-26.703-130.39-41.494-202.208-41.494-0.261 0-0.521 0-0.782 0.001zM511.923 822.598c-242.308-0-438.737-196.429-438.737-438.737s196.429-438.737 438.737-438.737c242.308 0 438.737 196.429 438.737 438.737 0 242.308-196.429 438.737-438.737 438.737zM718.861 424.078c-5.579-5.691-13.346-9.218-21.937-9.218s-16.358 3.527-21.932 9.213l-132.358 132.358v-418.994c0-16.962-13.75-30.712-30.712-30.712-16.962 0-30.712 13.75-30.712 30.712l-0 418.994-132.352-132.353c-5.614-5.614-13.37-9.087-21.937-9.087-17.134 0-31.023 13.89-31.023 31.023 0 8.567 3.472 16.323 9.087 21.937l185.001 184.27c5.579 5.691 13.346 9.218 21.937 9.218s16.358-3.527 21.932-9.213l185.006-185.006c5.691-5.579 9.218-13.346 9.218-21.937s-3.527-16.358-9.213-21.932z"  horiz-adv-x="1024" />

    
    <glyph glyph-name="caidan" unicode="&#59138;" d="M190.492672 768v-768.662528h643.675136V768H190.492672z m226.448384-42.262528h198.109184V673.792H416.941056v51.945472z m367.038464-681.495552H238.03904V725.737472h126.072832V620.96384h298.482688V725.737472h121.38496v-681.495552z m-68.554752 403.265536H308.641792v60.75392h406.782976v-60.75392z m0-149.66784H308.641792v60.75392h406.782976v-60.75392z m0-149.666816H308.641792v60.752896h406.782976V148.1728z"  horiz-adv-x="1024" />

    
    <glyph glyph-name="yun" unicode="&#58650;" d="M941.615787 543.307093c-58.067627 102.898347-166.26688 166.406827-285.129387 166.406827a327.021227 327.021227 0 0 1-215.067307-80.66048c-54.101333-47.19616-91.047253-110.636373-105.407146-180.350293C250.96192 424.168107 191.146667 346.016427 191.146667 255.945387c0-99.82976 74.175147-183.627093 170.31168-198.335147v-2.368853h561.967786c134.826667 0 244.415147 109.58848 244.415147 244.415146 0.07168 128.62464-99.966293 234.308267-226.225493 243.65056z m-18.121387-432.018773l-533.592747 0.139947c-78.639787 0.976213-142.636373 65.66912-142.636373 144.448853 0 69.782187 49.70496 129.52576 118.234453 142.144853l19.797334 3.69664 2.92864 19.93728c9.202347 63.85664 41.202347 122.487467 90.07104 165.2224a270.772907 270.772907 0 0 0 178.189653 66.78528c88.95488 0 170.65984-42.943147 221.1328-114.05312-59.60704-11.5712-113.70496-44.96384-150.442667-94.39232-9.270613-12.407467-6.693547-29.975893 5.853867-39.24992 12.41088-9.202347 29.979307-6.618453 39.24992 5.789014 35.97312 48.380587 91.11552 76.19584 151.210667 76.19584 103.80288 0 188.296533-84.425387 188.296533-188.299947 0.003413-103.871147-84.49024-188.3648-188.29312-188.3648z"  horiz-adv-x="1365" />

    
    <glyph glyph-name="ziyuan" unicode="&#58960;" d="M512 896a512 512 0 1 1 512-512A512 512 0 0 1 512 896z m0-955.733333a443.733333 443.733333 0 1 0 443.733333 443.733333 444.245333 444.245333 0 0 0-443.733333-443.733333zM510.976 513.536a35.157333 35.157333 0 0 0-35.157333 35.157333V645.376a35.157333 35.157333 0 0 0 70.314666 0V548.693333a35.157333 35.157333 0 0 0-35.157333-35.157333zM392.96 464.725333a35.072 35.072 0 0 0-24.832 10.325334l-68.266667 68.266666a35.157333 35.157333 0 1 0 49.664 49.664l68.266667-68.266666a35.157333 35.157333 0 0 0-24.832-59.733334zM344.149333 346.709333H247.466667a35.157333 35.157333 0 1 0 0 70.314667h96.682666a35.157333 35.157333 0 1 0 0-70.314667zM324.266667 160.426667a35.157333 35.157333 0 0 0-24.832 59.733333l68.266666 68.266667A35.157333 35.157333 0 0 0 418.133333 238.933333l-68.266666-68.266666a35.072 35.072 0 0 0-25.6-10.24zM510.976 83.2a35.157333 35.157333 0 0 0-35.157333 35.157333V215.04a35.157333 35.157333 0 0 0 70.314666 0v-96.682667a35.157333 35.157333 0 0 0-35.157333-35.157333zM697.770667 160.597333A35.072 35.072 0 0 0 672.853333 170.666667l-68.864 68.266666a35.157333 35.157333 0 0 0 49.322667 50.090667l68.864-68.266667a35.157333 35.157333 0 0 0-24.405333-60.16zM774.485333 346.709333H677.717333a35.157333 35.157333 0 1 0 0 70.314667h96.768a35.157333 35.157333 0 1 0 0-70.314667zM628.906667 464.725333a35.157333 35.157333 0 0 0-24.832 59.733334l68.266666 68.266666a35.157333 35.157333 0 0 0 49.664-49.664l-68.266666-68.266666a35.072 35.072 0 0 0-24.832-10.069334z"  horiz-adv-x="1024" />

    
    <glyph glyph-name="dailishang" unicode="&#58907;" d="M856.06912 463.18592h-116.75648v29.16352h-58.33728v-29.16352H330.73664v29.16352h-58.368v-29.16352H155.64288v-58.3936h116.72576v-58.36288h58.368V404.79232h350.23872v-58.36288h58.33728V404.79232h116.75648V463.18592zM883.00544 638.27456H681.0112V723.45088a31.64672 31.64672 0 0 1-31.64672 31.55456H362.1632a31.42656 31.42656 0 0 1-31.42656-31.42656v-85.2992H128.70656A31.42656 31.42656 0 0 1 97.28 606.85312v-574.70976a31.42656 31.42656 0 0 1 31.42656-31.42656h754.29376a31.42656 31.42656 0 0 1 31.42656 31.42656V606.848a31.41632 31.41632 0 0 1-31.42144 31.42656zM389.09952 696.63744h233.51808v-58.33216H389.09952V696.63744z m466.9696-193.06496v-448.96256H155.64288V579.91168h700.42624v-76.3392z"  horiz-adv-x="1024" />

    
    <glyph glyph-name="gongneng" unicode="&#58963;" d="M387.449762 881.538063h-311.375596c-34.393624 0-62.275119-27.881495-62.275119-62.275119v-311.375595c0-34.393624 27.881495-62.275119 62.275119-62.275119h311.375596c34.393624 0 62.275119 27.881495 62.275119 62.275119v311.375595c0 34.393624-27.881495 62.275119-62.275119 62.275119z m0-342.513155c0-17.19742-13.941356-31.13756-31.13756-31.137559H107.211726c-17.196204 0-31.13756 13.940139-31.13756 31.137559V788.125385c0 17.19742 13.940139 31.13756 31.13756 31.137559h249.100476c17.196204 0 31.13756-13.940139 31.13756-31.137559v-249.100477zM947.925834 881.538063H636.550238c-34.393624 0-62.273903-27.881495-62.273903-62.275119v-311.375595c0-34.393624 27.880279-62.275119 62.273903-62.275119h311.375596c34.393624 0 62.273903 27.881495 62.273902 62.275119v311.375595c0 34.393624-27.880279 62.275119-62.273902 62.275119z m0-342.513155c0-17.19742-13.940139-31.13756-31.13756-31.137559H667.687798c-17.19742 0-31.13756 13.940139-31.13756 31.137559V788.125385c0 17.19742 13.940139 31.13756 31.13756 31.137559h249.100476c17.19742 0 31.13756-13.940139 31.13756-31.137559v-249.100477zM387.449762 321.060775h-311.375596c-34.393624 0-62.275119-27.880279-62.275119-62.273903v-311.375595c0-34.393624 27.881495-62.273903 62.275119-62.273903h311.375596c34.393624 0 62.275119 27.880279 62.275119 62.273903v311.375595c0 34.393624-27.881495 62.273903-62.275119 62.273903z m0-342.513155c0-17.19742-13.941356-31.13756-31.13756-31.137559H107.211726c-17.196204 0-31.13756 13.940139-31.13756 31.137559V227.649313c0 17.19742 13.940139 31.13756 31.13756 31.137559h249.100476c17.196204 0 31.13756-13.940139 31.13756-31.137559v-249.101693z m560.476072 342.513155H636.550238c-34.393624 0-62.273903-27.880279-62.273903-62.273903v-311.375595c0-34.393624 27.880279-62.273903 62.273903-62.273903h311.375596c34.393624 0 62.273903 27.880279 62.273902 62.273903v311.375595c0 34.393624-27.880279 62.273903-62.273902 62.273903z m0-342.513155c0-17.19742-13.940139-31.13756-31.13756-31.137559H667.687798c-17.19742 0-31.13756 13.940139-31.13756 31.137559V227.649313c0 17.19742 13.940139 31.13756 31.13756 31.137559h249.100476c17.19742 0 31.13756-13.940139 31.13756-31.137559v-249.101693z"  horiz-adv-x="1024" />

    


  </font>
</defs>
</svg>
